{
  "accessors": [
    {
      "bufferView": 2,
      "componentType": 5126,
      "count": 805,
      "max": [
        1.1338130235671997,
        2.4410784244537354,
        5.321937084197998
      ],
      "min": [
        -1.1338130235671997,
        -3.784090518951416,
        -5.5913901329040527
      ],
      "type": "VEC3"
    },
    {
      "bufferView": 2,
      "byteOffset": 9660,
      "componentType": 5126,
      "count": 805,
      "max": [
        1,
        1,
        0.98627424240112305
      ],
      "min": [
        -0.99999839067459106,
        -0.98555111885070801,
        -0.99870991706848145
      ],
      "type": "VEC3"
    },
    {
      "bufferView": 3,
      "componentType": 5126,
      "count": 805,
      "max": [
        0.86287844181060791,
        0.99795758724212646,
        0.99648737907409668,
        1
      ],
      "min": [
        -0.95125365257263184,
        -0.67173278331756592,
        -0.93363732099533081,
        -1
      ],
      "type": "VEC4"
    },
    {
      "bufferView": 1,
      "componentType": 5126,
      "count": 805,
      "max": [
        0.875,
        1
      ],
      "min": [
        0,
        0
      ],
      "type": "VEC2"
    },
    {
      "bufferView": 0,
      "componentType": 5125,
      "count": 1077,
      "max": [
        804
      ],
      "min": [
        0
      ],
      "type": "SCALAR"
    },
    {
      "bufferView": 2,
      "byteOffset": 19320,
      "componentType": 5126,
      "count": 120,
      "max": [
        0.90736567974090576,
        2.1014692783355713,
        5.3978896141052246
      ],
      "min": [
        -0.90736567974090576,
        0.48048138618469238,
        3.4027395248413086
      ],
      "type": "VEC3"
    },
    {
      "bufferView": 2,
      "byteOffset": 20760,
      "componentType": 5126,
      "count": 120,
      "max": [
        0.99174481630325317,
        0.98595458269119263,
        0.059295684099197388
      ],
      "min": [
        -0.99174481630325317,
        -0.89537090063095093,
        -0.95727819204330444
      ],
      "type": "VEC3"
    },
    {
      "bufferView": 3,
      "byteOffset": 12880,
      "componentType": 5126,
      "count": 120,
      "max": [
        0,
        0,
        0,
        1
      ],
      "min": [
        0,
        0,
        0,
        1
      ],
      "type": "VEC4"
    },
    {
      "bufferView": 1,
      "byteOffset": 6440,
      "componentType": 5126,
      "count": 120,
      "max": [
        0,
        0
      ],
      "min": [
        0,
        0
      ],
      "type": "VEC2"
    },
    {
      "bufferView": 0,
      "byteOffset": 4308,
      "componentType": 5125,
      "count": 156,
      "max": [
        119
      ],
      "min": [
        0
      ],
      "type": "SCALAR"
    },
    {
      "bufferView": 2,
      "byteOffset": 22200,
      "componentType": 5126,
      "count": 54,
      "max": [
        0.36687049269676208,
        1.3340780735015869,
        4.5519261360168457
      ],
      "min": [
        -0.36687052249908447,
        1.2098472118377686,
        4.4245924949645996
      ],
      "type": "VEC3"
    },
    {
      "bufferView": 2,
      "byteOffset": 22848,
      "componentType": 5126,
      "count": 54,
      "max": [
        0.87579613924026489,
        0.57922846078872681,
        -0.0720067098736763
      ],
      "min": [
        -0.87579607963562012,
        -0.85148626565933228,
        -0.90755414962768555
      ],
      "type": "VEC3"
    },
    {
      "bufferView": 3,
      "byteOffset": 14800,
      "componentType": 5126,
      "count": 54,
      "max": [
        0,
        0,
        0,
        1
      ],
      "min": [
        0,
        0,
        0,
        1
      ],
      "type": "VEC4"
    },
    {
      "bufferView": 1,
      "byteOffset": 7400,
      "componentType": 5126,
      "count": 54,
      "max": [
        0,
        0
      ],
      "min": [
        0,
        0
      ],
      "type": "VEC2"
    },
    {
      "bufferView": 0,
      "byteOffset": 4932,
      "componentType": 5125,
      "count": 54,
      "max": [
        53
      ],
      "min": [
        0
      ],
      "type": "SCALAR"
    },
    {
      "bufferView": 2,
      "byteOffset": 23496,
      "componentType": 5126,
      "count": 114,
      "max": [
        1.1338130235671997,
        2.4410784244537354,
        5.1948456764221191
      ],
      "min": [
        -1.1338130235671997,
        -1.2746150493621826,
        -3.8681924343109131
      ],
      "type": "VEC3"
    },
    {
      "bufferView": 2,
      "byteOffset": 24864,
      "componentType": 5126,
      "count": 114,
      "max": [
        0.9111168384552002,
        0.95192354917526245,
        0.265138179063797
      ],
      "min": [
        -0.9111168384552002,
        -0.50275284051895142,
        -0.95727825164794922
      ],
      "type": "VEC3"
    },
    {
      "bufferView": 3,
      "byteOffset": 15664,
      "componentType": 5126,
      "count": 114,
      "max": [
        0.68112373352050781,
        0.69790220260620117,
        0.22136631608009338,
        1
      ],
      "min": [
        -0.69769382476806641,
        -0.29750123620033264,
        -0.93255323171615601,
        -1
      ],
      "type": "VEC4"
    },
    {
      "bufferView": 1,
      "byteOffset": 7832,
      "componentType": 5126,
      "count": 114,
      "max": [
        0.625,
        1
      ],
      "min": [
        0,
        0
      ],
      "type": "VEC2"
    },
    {
      "bufferView": 0,
      "byteOffset": 5148,
      "componentType": 5125,
      "count": 150,
      "max": [
        113
      ],
      "min": [
        0
      ],
      "type": "SCALAR"
    }
  ],
  "asset": {
    "extras": {
      "author": "larycim (https://sketchfab.com/larycim)",
      "license": "CC-BY-4.0 (http://creativecommons.org/licenses/by/4.0/)",
      "source": "https://sketchfab.com/3d-models/wulf-5afd370f5b704fc894f686fd4cf9527a",
      "title": "Wulf"
    },
    "generator": "Sketchfab-6.87.0",
    "version": "2.0"
  },
  "bufferViews": [
    {
      "buffer": 0,
      "byteLength": 5748,
      "byteOffset": 0,
      "name": "floatBufferViews",
      "target": 34963
    },
    {
      "buffer": 0,
      "byteLength": 8744,
      "byteOffset": 5748,
      "byteStride": 8,
      "name": "floatBufferViews",
      "target": 34962
    },
    {
      "buffer": 0,
      "byteLength": 26232,
      "byteOffset": 14492,
      "byteStride": 12,
      "name": "floatBufferViews",
      "target": 34962
    },
    {
      "buffer": 0,
      "byteLength": 17488,
      "byteOffset": 40724,
      "byteStride": 16,
      "name": "floatBufferViews",
      "target": 34962
    }
  ],
  "buffers": [
    {
      "byteLength": 58212,
      "uri": "scene.bin"
    }
  ],
  "materials": [
    {
      "doubleSided": true,
      "emissiveFactor": [
        0,
        0,
        0
      ],
      "name": "Material",
      "pbrMetallicRoughness": {
        "baseColorFactor": [
          0.086500499999999994,
          0.064803299999999994,
          0.031896000000000001,
          1
        ],
        "metallicFactor": 0,
        "roughnessFactor": 0.90857100000000002
      }
    },
    {
      "doubleSided": true,
      "emissiveFactor": [
        0,
        0,
        0
      ],
      "name": "black",
      "pbrMetallicRoughness": {
        "baseColorFactor": [
          0.033102600000000003,
          0.033102600000000003,
          0.033102600000000003,
          1
        ],
        "metallicFactor": 1,
        "roughnessFactor": 0.882857
      }
    },
    {
      "doubleSided": true,
      "emissiveFactor": [
        0,
        0,
        0
      ],
      "name": "eyeris",
      "pbrMetallicRoughness": {
        "baseColorFactor": [
          0.22322800000000001,
          0.17144100000000001,
          0.0722719,
          1
        ],
        "metallicFactor": 0,
        "roughnessFactor": 0.86571399999999998
      }
    },
    {
      "doubleSided": true,
      "emissiveFactor": [
        0,
        0,
        0
      ],
      "name": "white-fur",
      "pbrMetallicRoughness": {
        "baseColorFactor": [
          0.44520100000000001,
          0.42869000000000002,
          0.401978,
          1
        ],
        "metallicFactor": 0,
        "roughnessFactor": 0.5
      }
    }
  ],
  "meshes": [
    {
      "primitives": [
        {
          "attributes": {
            "NORMAL": 1,
            "POSITION": 0,
            "TANGENT": 2,
            "TEXCOORD_0": 3
          },
          "indices": 4,
          "material": 0,
          "mode": 4
        }
      ]
    },
    {
      "primitives": [
        {
          "attributes": {
            "NORMAL": 6,
            "POSITION": 5,
            "TANGENT": 7,
            "TEXCOORD_0": 8
          },
          "indices": 9,
          "material": 1,
          "mode": 4
        }
      ]
    },
    {
      "primitives": [
        {
          "attributes": {
            "NORMAL": 11,
            "POSITION": 10,
            "TANGENT": 12,
            "TEXCOORD_0": 13
          },
          "indices": 14,
          "material": 2,
          "mode": 4
        }
      ]
    },
    {
      "primitives": [
        {
          "attributes": {
            "NORMAL": 16,
            "POSITION": 15,
            "TANGENT": 17,
            "TEXCOORD_0": 18
          },
          "indices": 19,
          "material": 3,
          "mode": 4
        }
      ]
    }
  ],
  "nodes": [
    {
      "children": [
        1
      ],
      "name": "RootNode (gltf orientation matrix)",
      "rotation": [
        -0.70710678118654746,
        -0,
        -0,
        0.70710678118654757
      ]
    },
    {
      "children": [
        2
      ],
      "name": "RootNode (model correction matrix)"
    },
    {
      "children": [
        3
      ],
      "name": "root"
    },
    {
      "children": [
        4
      ],
      "matrix": [
        1,
        0,
        0,
        0,
        0,
        2.2204460492503131e-16,
        1,
        0,
        0,
        -1,
        2.2204460492503131e-16,
        0,
        0,
        0,
        0,
        1
      ],
      "name": "GLTF_SceneRootNode"
    },
    {
      "children": [
        5,
        6,
        7,
        8
      ],
      "matrix": [
        1,
        0,
        0,
        0,
        0,
        1,
        0,
        0,
        0,
        0,
        1,
        0,
        0,
        3.8034510612487793,
        0,
        1
      ],
      "name": "Cube_0"
    },
    {
      "mesh": 0,
      "name": ""
    },
    {
      "mesh": 1,
      "name": ""
    },
    {
      "mesh": 2,
      "name": ""
    },
    {
      "mesh": 3,
      "name": ""
    }
  ],
  "scene": 0,
  "scenes": [
    {
      "name": "OSG_Scene",
      "nodes": [
        0
      ]
    }
  ]
}

