{
  "accessors": [
    {
      "bufferView": 2,
      "componentType": 5126,
      "count": 21787,
      "max": [
        26.38713264465332,
        13.215574264526367,
        14.009433746337891
      ],
      "min": [
        -26.303705215454102,
        -6.2864999771118164,
        -0.24226300418376923
      ],
      "type": "VEC3"
    },
    {
      "bufferView": 2,
      "byteOffset": 261444,
      "componentType": 5126,
      "count": 21787,
      "max": [
        0.99982321262359619,
        0.99924725294113159,
        0.99996548891067505
      ],
      "min": [
        -0.9999813437461853,
        -0.99984562397003174,
        -0.99997162818908691
      ],
      "type": "VEC3"
    },
    {
      "bufferView": 3,
      "componentType": 5126,
      "count": 21787,
      "max": [
        0,
        0,
        0,
        1
      ],
      "min": [
        0,
        0,
        0,
        1
      ],
      "type": "VEC4"
    },
    {
      "bufferView": 1,
      "componentType": 5126,
      "count": 21787,
      "max": [
        0.99955302476882935,
        0.99917799234390259
      ],
      "min": [
        0.00084100000094622374,
        0.0010920000495389104
      ],
      "type": "VEC2"
    },
    {
      "bufferView": 0,
      "componentType": 5125,
      "count": 21789,
      "max": [
        21786
      ],
      "min": [
        0
      ],
      "type": "SCALAR"
    }
  ],
  "asset": {
    "extras": {
      "author": "Oleg Shuldyakov (https://sketchfab.com/shuographics)",
      "license": "CC-BY-4.0 (http://creativecommons.org/licenses/by/4.0/)",
      "source": "https://sketchfab.com/models/cbe43f22de2e48b5b39101807a7f535f",
      "title": "Low Polygon Art  White Eagle Bird"
    },
    "generator": "Sketchfab-3.23.4",
    "version": "2.0"
  },
  "bufferViews": [
    {
      "buffer": 0,
      "byteLength": 87156,
      "byteOffset": 0,
      "name": "floatBufferViews",
      "target": 34963
    },
    {
      "buffer": 0,
      "byteLength": 174296,
      "byteOffset": 87156,
      "byteStride": 8,
      "name": "floatBufferViews",
      "target": 34962
    },
    {
      "buffer": 0,
      "byteLength": 522888,
      "byteOffset": 261452,
      "byteStride": 12,
      "name": "floatBufferViews",
      "target": 34962
    },
    {
      "buffer": 0,
      "byteLength": 348592,
      "byteOffset": 784340,
      "byteStride": 16,
      "name": "floatBufferViews",
      "target": 34962
    }
  ],
  "buffers": [
    {
      "byteLength": 1132932,
      "uri": "scene.bin"
    }
  ],
  "images": [
    {
      "uri": "textures/09___Default_baseColor.png"
    },
    {
      "uri": "textures/09___Default_metallicRoughness.png"
    },
    {
      "uri": "textures/09___Default_emissive.png"
    }
  ],
  "materials": [
    {
      "doubleSided": true,
      "emissiveFactor": [
        0.40000000000000002,
        0.40000000000000002,
        0.40000000000000002
      ],
      "emissiveTexture": {
        "index": 2,
        "texCoord": 0
      },
      "name": "09___Default",
      "pbrMetallicRoughness": {
        "baseColorFactor": [
          1,
          1,
          1,
          1
        ],
        "baseColorTexture": {
          "index": 0,
          "texCoord": 0
        },
        "metallicFactor": 0.80000000000000004,
        "metallicRoughnessTexture": {
          "index": 1,
          "texCoord": 0
        },
        "roughnessFactor": 1
      }
    }
  ],
  "meshes": [
    {
      "primitives": [
        {
          "attributes": {
            "NORMAL": 1,
            "POSITION": 0,
            "TANGENT": 2,
            "TEXCOORD_0": 3
          },
          "indices": 4,
          "material": 0,
          "mode": 4
        }
      ]
    }
  ],
  "nodes": [
    {
      "children": [
        1
      ],
      "name": "RootNode (gltf orientation matrix)",
      "rotation": [
        -0.70710678118654746,
        -0,
        -0,
        0.70710678118654757
      ]
    },
    {
      "children": [
        2
      ],
      "name": "RootNode (model correction matrix)"
    },
    {
      "children": [
        3
      ],
      "name": "White Eagle.obj.cleaner.materialmerger.gles"
    },
    {
      "mesh": 0,
      "name": ""
    }
  ],
  "samplers": [
    {
      "magFilter": 9729,
      "minFilter": 9987,
      "wrapS": 10497,
      "wrapT": 10497
    }
  ],
  "scene": 0,
  "scenes": [
    {
      "name": "OSG_Scene",
      "nodes": [
        0
      ]
    }
  ],
  "textures": [
    {
      "sampler": 0,
      "source": 0
    },
    {
      "sampler": 0,
      "source": 1
    },
    {
      "sampler": 0,
      "source": 2
    }
  ]
}

