{
  "accessors": [
    {
      "bufferView": 1,
      "componentType": 5126,
      "count": 1532,
      "max": [
        0.7449300289154053,
        3.180569887161255,
        1.4180599451065063
      ],
      "min": [
        -0.7449300289154053,
        -3.222440004348755,
        -1.473140001296997
      ],
      "type": "VEC3"
    },
    {
      "bufferView": 1,
      "byteOffset": 18384,
      "componentType": 5126,
      "count": 1532,
      "max": [
        0.998224675655365,
        0.9919959902763367,
        0.9995213150978088
      ],
      "min": [
        -0.998224675655365,
        -0.9960393905639648,
        -0.9999812841415405
      ],
      "type": "VEC3"
    },
    {
      "bufferView": 0,
      "componentType": 5125,
      "count": 2238,
      "type": "SCALAR"
    },
    {
      "bufferView": 1,
      "byteOffset": 36768,
      "componentType": 5126,
      "count": 1664,
      "max": [
        1.1556099653244019,
        3.4322900772094727,
        1.9706499576568604
      ],
      "min": [
        -1.1556099653244019,
        -2.5381500720977783,
        -2.59768009185791
      ],
      "type": "VEC3"
    },
    {
      "bufferView": 1,
      "byteOffset": 56736,
      "componentType": 5126,
      "count": 1664,
      "max": [
        1.0,
        0.9993003606796265,
        0.9999333620071411
      ],
      "min": [
        -1.0,
        -0.9993003606796265,
        -0.9999996423721313
      ],
      "type": "VEC3"
    },
    {
      "bufferView": 0,
      "byteOffset": 8952,
      "componentType": 5125,
      "count": 2412,
      "type": "SCALAR"
    }
  ],
  "asset": {
    "extras": {
      "author": "m.altay (https://sketchfab.com/altay16)",
      "license": "CC-BY-4.0 (http://creativecommons.org/licenses/by/4.0/)",
      "source": "https://sketchfab.com/3d-models/low-poly-elk-57f6633a35ab48849bf08676ac88d8a9",
      "title": "Low-poly Elk"
    },
    "generator": "Sketchfab-10.42.0",
    "version": "2.0"
  },
  "bufferViews": [
    {
      "buffer": 0,
      "byteLength": 18600,
      "name": "floatBufferViews",
      "target": 34963
    },
    {
      "buffer": 0,
      "byteLength": 76704,
      "byteOffset": 18600,
      "byteStride": 12,
      "name": "floatBufferViews",
      "target": 34962
    }
  ],
  "buffers": [
    {
      "byteLength": 95304,
      "uri": "scene.bin"
    }
  ],
  "extensionsRequired": [
    "KHR_materials_pbrSpecularGlossiness"
  ],
  "extensionsUsed": [
    "KHR_materials_pbrSpecularGlossiness"
  ],
  "materials": [
    {
      "doubleSided": true,
      "extensions": {
        "KHR_materials_pbrSpecularGlossiness": {
          "diffuseFactor": [
            0.6053283849968216,
            0.27548857878811683,
            0.06866423311425504,
            1.0
          ],
          "glossinessFactor": 0.0,
          "specularFactor": [
            0.0,
            0.0,
            0.0
          ]
        }
      },
      "name": "Root"
    },
    {
      "doubleSided": true,
      "extensions": {
        "KHR_materials_pbrSpecularGlossiness": {
          "diffuseFactor": [
            0.07815172394660573,
            0.027002514338338553,
            0.0024397565019965406,
            1.0
          ],
          "glossinessFactor": 0.0,
          "specularFactor": [
            0.0,
            0.0,
            0.0
          ]
        }
      },
      "name": "Material.001"
    }
  ],
  "meshes": [
    {
      "name": "Plane_0",
      "primitives": [
        {
          "attributes": {
            "NORMAL": 1,
            "POSITION": 0
          },
          "indices": 2,
          "material": 1,
          "mode": 4
        }
      ]
    },
    {
      "name": "Plane_2",
      "primitives": [
        {
          "attributes": {
            "NORMAL": 4,
            "POSITION": 3
          },
          "indices": 5,
          "material": 0,
          "mode": 4
        }
      ]
    }
  ],
  "nodes": [
    {
      "children": [
        1
      ],
      "matrix": [
        1.0,
        0.0,
        0.0,
        0.0,
        0.0,
        2.220446049250313e-16,
        -1.0,
        0.0,
        0.0,
        1.0,
        2.220446049250313e-16,
        0.0,
        0.0,
        0.0,
        0.0,
        1.0
      ],
      "name": "Sketchfab_model"
    },
    {
      "children": [
        2,
        4
      ],
      "name": "Root"
    },
    {
      "children": [
        3
      ],
      "matrix": [
        0.9406300000000001,
        0.3355800000000001,
        0.05103000000000001,
        0.0,
        -0.23548000000000002,
        0.53688,
        0.81013,
        0.0,
        0.24446000000000004,
        -0.77405,
        0.58403,
        0.0,
        25.474050000000002,
        -8.899480000000002,
        8.360090000000001,
        1.0
      ],
      "name": "Lamp"
    },
    {
      "name": "Lamp"
    },
    {
      "children": [
        5,
        6
      ],
      "matrix": [
        1.0,
        0.0,
        0.0,
        0.0,
        0.0,
        1.0,
        0.0,
        0.0,
        0.0,
        0.0,
        1.0,
        0.0,
        23.74449,
        -19.843429999999998,
        2.4562299999999997,
        1.0
      ],
      "name": "Plane"
    },
    {
      "mesh": 0,
      "name": "Plane_0"
    },
    {
      "mesh": 1,
      "name": "Plane_2"
    }
  ],
  "scene": 0,
  "scenes": [
    {
      "name": "Sketchfab_Scene",
      "nodes": [
        0
      ]
    }
  ]
}
